<?xml version="1.0" standalone="no"?>
<svg viewBox="0 0 600 600" xmlns="http://www.w3.org/2000/svg">
<title>Alternate form of the heraldic Cross Pattee (Patty, Formy), with straight parallel arms near center</title>
<rect fill="#fff" left="0" top="0" width="600" height="600"></rect>
<path fill="#9B0000" d="M202.3,338
A225,225 0 0,0 29.94,418.373V181.627
A225,225 0 0,0 202.3,262H262V202.3
A225,225 0 0,0 181.627,29.94H418.373
A225,225 0 0,0 338,202.3V262H397.6
A225,225 0 0,0 569.96,181.627V418.373
A225,225 0 0,0 397.6,338H338V397.6
A225,225 0 0,0 418.373,569.96H181.627
A225,225 0 0,0 262,397.6V338Z"/></svg>